<?xml version="1.0" encoding="UTF-8"?>
<svg version="1.1" xmlns="http://www.w3.org/2000/svg" width="3840" height="2160">
<path d="M0 0 C3 1 3 1 4.18200684 3.15774536 C4.75223572 4.59390701 4.75223572 4.59390701 5.33398438 6.05908203 C5.77368561 7.15040939 6.21338684 8.24173676 6.66641235 9.36613464 C7.37294449 11.16876518 7.37294449 11.16876518 8.09375 13.0078125 C8.596771 14.2677173 9.1008107 15.5272158 9.60580444 16.78633118 C10.68491316 19.48294346 11.75700864 22.18219845 12.82366943 24.88375854 C14.50849781 29.15088995 16.20827112 33.41196241 17.91064453 37.67211914 C19.9220104 42.70823141 21.92998023 47.74566773 23.93302345 52.78509617 C28.1578526 63.41355691 32.4357982 74.02013139 36.73291016 84.61956787 C38.64512464 89.33766485 40.55268635 94.05764276 42.4609375 98.77734375 C43.21449429 100.64047192 43.968075 102.50359042 44.72167969 104.36669922 C48.25097352 113.09264734 51.77833796 121.8193755 55.3059082 130.54602051 C57.28982006 135.45388016 59.27381075 140.36170794 61.2578125 145.26953125 C61.84619904 146.72502884 61.84619904 146.72502884 62.44647217 148.20993042 C64.80119078 154.03475112 67.15610204 159.85949389 69.51116943 165.68417358 C78.62326691 188.22072994 87.73076932 210.75913421 96.8324585 233.29989624 C103.0514436 248.70135872 109.2738786 264.10142108 115.5 279.5 C122.17078766 295.99833717 128.83691307 312.49855131 135.5 329 C142.20515263 345.60545332 148.91275675 362.20991149 155.625 378.8125 C156.01399475 379.77467438 156.4029895 380.73684875 156.80377197 381.72817993 C159.53571248 388.48550808 162.26783404 395.24276301 165 402 C168.12512726 409.72911522 171.25016943 417.45826483 174.375 425.1875 C174.76383362 426.14927155 175.15266724 427.11104309 175.55328369 428.10195923 C181.87260316 443.73312677 188.1871513 459.36621817 194.5 475 C199.64971318 487.75314107 204.79976882 500.50614299 209.953125 513.2578125 C210.35321777 514.24791321 210.75331055 515.23801392 211.16552734 516.25811768 C213.14197773 521.14862967 215.11962405 526.0386524 217.09960938 530.92773438 C220.94706382 540.43042258 224.77853919 549.93899964 228.578125 559.4609375 C242.74680827 594.92306712 257.29385953 627.07306147 284 655 C285.31097656 656.39025391 285.31097656 656.39025391 286.6484375 657.80859375 C318.84041973 691.08622934 360.39461491 705.44633878 406 708 C407.06476562 708.06058594 408.12953125 708.12117188 409.2265625 708.18359375 C412.17295726 708.25576769 415.05629632 708.16219704 418 708 C418.7729541 707.95891113 419.5459082 707.91782227 420.34228516 707.87548828 C440.2038242 706.72829106 459.46048962 703.28677815 478.29003906 696.79199219 C480.17761029 696.14661861 482.08729725 695.56656897 484 695 C484.66 695.33 485.32 695.66 486 696 C485.61630249 696.83301636 485.61630249 696.83301636 485.22485352 697.68286133 C468.87399715 733.47699487 457.9499107 771.43415436 457 811 C456.97953613 811.6919043 456.95907227 812.38380859 456.93798828 813.09667969 C455.99697403 848.26417104 461.50969548 884.18117638 474.31005859 917.01538086 C476.10023554 921.69929339 476.10023554 921.69929339 475 925 C474.20335938 924.72285156 473.40671875 924.44570312 472.5859375 924.16015625 C471.52632812 923.79792969 470.46671875 923.43570313 469.375 923.0625 C468.33085937 922.70285156 467.28671875 922.34320312 466.2109375 921.97265625 C450.25110571 917.13810866 433.46546647 919.78948714 418 925 C417.33129883 925.22461914 416.66259766 925.44923828 415.97363281 925.68066406 C408.60846421 928.23486438 401.69909796 931.51324873 394.875 935.25 C394.27856689 935.57194336 393.68213379 935.89388672 393.06762695 936.22558594 C381.36962833 942.89048819 371.82092217 951.85275839 362.56607056 961.49462891 C352.46600933 971.9787305 342.26452596 981.48265492 330.11279297 989.58837891 C328.01261495 990.99157157 325.94354743 992.43184973 323.87890625 993.88671875 C297.05108528 1012.72050603 268.77174047 1029.56881902 239.28125 1043.88818359 C236.65044606 1045.17036266 234.02897648 1046.47091249 231.40625 1047.76953125 C178.37728527 1073.83849903 121.53813643 1091.16065535 63.4375 1101.4375 C62.7259375 1101.56346558 62.014375 1101.68943115 61.28125 1101.81921387 C53.54676365 1103.17608592 45.834009 1104.38718677 38 1105 C40.35682011 1102.64317989 41.50305939 1102.50062778 44.72265625 1101.84375 C46.21708252 1101.52531128 46.21708252 1101.52531128 47.74169922 1101.20043945 C48.83756348 1100.96929443 49.93342773 1100.73814941 51.0625 1100.5 C91.69400391 1091.47045992 130.06691573 1076.08845963 167 1057 C167.63728027 1056.67435059 168.27456055 1056.34870117 168.93115234 1056.01318359 C189.76119804 1045.34591175 207.51272952 1031.51369239 224 1015 C225.09828125 1013.97132813 225.09828125 1013.97132813 226.21875 1012.921875 C247.44466217 992.71364355 259.89669824 968.4007788 266 940 C266.37318359 938.26363281 266.37318359 938.26363281 266.75390625 936.4921875 C272.31178953 904.85500573 265.22474348 874.11612446 252.14086914 845.42041016 C247.53459979 835.3077403 243.23301177 825.08652096 239 814.8125 C238.28236076 813.07305763 237.56466804 811.33363733 236.84692383 809.59423828 C235.73204871 806.89177988 234.61742293 804.18921989 233.50352478 801.48635864 C229.41424387 791.56775137 225.28709827 781.66498753 221.15762329 771.76306152 C219.87448735 768.68627074 218.59183828 765.60927742 217.30932617 762.53222656 C214.18335402 755.03257035 211.05644635 747.53330433 207.92919922 740.03417969 C206.05664462 735.5437538 204.18437963 731.0532073 202.3125 726.5625 C202.013367 725.84488495 201.71423401 725.1272699 201.40603638 724.38790894 C196.52695412 712.68130056 191.6671965 700.96673887 186.8125 689.25 C180.62042504 674.3057097 174.4107825 659.36882157 168.1875 644.4375 C167.77113281 643.43850677 167.35476563 642.43951355 166.92578125 641.4102478 C163.95103603 634.27328372 160.97559562 627.13660956 158 620 C154.60369281 611.85436415 151.20768704 603.70860282 147.8125 595.5625 C147.18690689 594.06153275 147.18690689 594.06153275 146.54867554 592.53024292 C140.50444507 578.02693235 134.47815331 563.51628272 128.4644165 549.00030518 C120.19579433 529.04312098 111.88329259 509.10426606 103.5703125 489.16552734 C98.85052569 477.84464167 94.134036 466.52238177 89.41693115 455.20037842 C88.17120248 452.21040052 86.92545361 449.22043105 85.6796875 446.23046875 C85.27902069 445.26882813 84.87835388 444.3071875 84.46554565 443.31640625 C81.98055531 437.35248043 79.49453833 431.38898362 77.0078125 425.42578125 C70.59268598 410.04073987 64.19306826 394.649408 57.8125 379.25 C51.62042504 364.3057097 45.4107825 349.36882157 39.1875 334.4375 C38.56294922 332.93901016 38.56294922 332.93901016 37.92578125 331.4102478 C34.95103603 324.27328372 31.97559562 317.13660956 29 310 C25.60369281 301.85436414 22.20779375 293.70855835 18.8125 285.5625 C18.39842896 284.56916656 17.98435791 283.57583313 17.55773926 282.55239868 C11.31091804 267.56537346 5.08919863 252.56808703 -1.12188721 237.56622314 C-7.01045506 223.34711552 -12.9678386 209.15884647 -19 195 C-22.29884863 202.75434231 -25.37832057 210.55159081 -28.23046875 218.48046875 C-28.61796295 219.5499324 -29.00545715 220.61939606 -29.4046936 221.7212677 C-30.2353342 224.01450425 -31.06472956 226.30819217 -31.89297485 228.60229492 C-33.89976876 234.16013807 -35.91451762 239.71509632 -37.92902946 245.27014542 C-38.61904495 247.17309128 -39.30874338 249.07615186 -39.99842834 250.97921753 C-44.23499449 262.66564893 -48.51799903 274.33475893 -52.8125 286 C-59.71588397 304.76050978 -66.58481952 323.53342741 -73.4375 342.3125 C-73.93017363 343.66253741 -74.42284941 345.01257403 -74.91552734 346.36260986 C-77.10923805 352.37392386 -79.30272131 358.38532083 -81.4960289 364.39678192 C-85.93273934 376.55695968 -90.37122037 388.71649022 -94.8125 400.875 C-95.20013519 401.9362207 -95.58777039 402.99744141 -95.9871521 404.09082031 C-101.92105921 420.3335617 -107.87948066 436.56719537 -113.84759521 452.7973938 C-120.40272761 470.62659357 -126.92547703 488.46752272 -133.4375 506.3125 C-133.68153564 506.9812339 -133.92557129 507.6499678 -134.17700195 508.33896637 C-136.37803377 514.37061038 -138.57885468 520.40233134 -140.7795105 526.43411255 C-146.20642466 541.30837758 -151.64082288 556.17990653 -157.07568359 571.05126953 C-157.84603018 573.15917913 -158.61637523 575.26708928 -159.38671875 577.375 C-159.95543701 578.93116531 -159.95543701 578.93116531 -160.53564453 580.51876831 C-163.28159061 588.03286486 -166.02581306 595.54758971 -168.76953125 603.0625 C-176.7739331 624.9840375 -184.79485467 646.89930761 -192.84951782 668.8024292 C-198.60844249 684.46506846 -204.34167251 700.13699579 -210.06123161 715.81404305 C-211.76276071 720.47774981 -213.46533647 725.14107342 -215.16845703 729.80419922 C-216.14619096 732.48143359 -217.12388405 735.15868287 -218.1015625 737.8359375 C-218.34431034 738.50063931 -218.58705818 739.16534111 -218.83716202 739.85018539 C-221.79681447 747.9550956 -224.75087617 756.06200658 -227.69759274 764.17162895 C-230.33479325 771.42884258 -232.97765529 778.68398091 -235.625 785.9375 C-235.85595242 786.57058327 -236.08690483 787.20366653 -236.3248558 787.85593414 C-241.81771171 802.90775903 -247.41803663 817.88845662 -253.5625 832.6875 C-257.69568868 842.66283604 -261.6806831 852.43315371 -264 863 C-264.18884766 863.82113281 -264.37769531 864.64226563 -264.57226562 865.48828125 C-274.03649517 908.09272827 -267.21139262 950.69208413 -244.16210938 987.68505859 C-237.93271254 997.40925999 -230.86768435 1006.31231059 -223.0078125 1014.78125 C-221.60346819 1016.33313242 -220.25807589 1017.93948628 -218.9609375 1019.58203125 C-216.02613092 1023.20084654 -212.54911975 1026.00049682 -209 1029 C-207.71802734 1030.13115234 -207.71802734 1030.13115234 -206.41015625 1031.28515625 C-191.52113751 1044.17263338 -174.54794 1053.24783545 -157 1062 C-155.93426758 1062.53415527 -154.86853516 1063.06831055 -153.77050781 1063.61865234 C-125.64143081 1077.64983291 -96.86755729 1088.41016236 -67 1098 C-65.86111328 1098.36593262 -64.72222656 1098.73186523 -63.54882812 1099.10888672 C-58.37383842 1100.76544413 -53.19277172 1102.40006493 -48 1104 C-48 1104.33 -48 1104.66 -48 1105 C-58.07414279 1104.44073512 -67.85050679 1102.783868 -77.75 1100.9375 C-78.57980377 1100.78349731 -79.40960754 1100.62949463 -80.26455688 1100.4708252 C-145.26082174 1088.32906648 -205.77669866 1064.56912796 -264.01953125 1033.625 C-267.5420595 1031.75801053 -271.08294255 1029.93177967 -274.63671875 1028.125 C-304.78510587 1012.74682513 -331.30491082 993.39792214 -355.93359375 970.2421875 C-362.75915868 963.85855745 -369.87275508 957.9999452 -377.29150391 952.31884766 C-378.89937095 951.07767907 -380.48753534 949.81110581 -382.07421875 948.54296875 C-402.01741692 932.73651591 -422.36952818 919.58514083 -448.625 919.625 C-449.57487793 919.62443604 -450.52475586 919.62387207 -451.50341797 919.62329102 C-460.15083699 919.75638418 -467.76447372 921.43026812 -476 924 C-477.33159032 924.34022947 -478.66458967 924.67508748 -480 925 C-478.40811124 919.65558848 -476.79133271 914.32023339 -475.1328125 908.99609375 C-454.67703581 842.65262419 -454.24330924 767.72381837 -483.64990234 703.69482422 C-486.09806866 698.29420597 -486.09806866 698.29420597 -485 695 C-484.10414185 695.49028687 -484.10414185 695.49028687 -483.19018555 695.99047852 C-447.11079597 715.60836632 -401.92362335 730.37001882 -360.73828125 718.84765625 C-334.67104875 711.02409968 -312.48618176 694.57920856 -293 676 C-291.83017578 674.90945313 -291.83017578 674.90945313 -290.63671875 673.796875 C-264.77669525 648.99330006 -251.24174375 615.94464661 -238.15771484 583.35791016 C-234.93447052 575.33913838 -231.64743385 567.3464814 -228.36752319 559.35076904 C-226.47359038 554.73124664 -224.58443599 550.10977203 -222.6953125 545.48828125 C-222.31285873 544.55274414 -221.93040497 543.61720703 -221.53636169 542.65332031 C-213.68234577 523.43904417 -205.84195775 504.21919963 -198 485 C-194.6252352 476.72907067 -191.25031949 468.45820298 -187.875 460.1875 C-187.45945862 459.16927155 -187.04391724 458.15104309 -186.61578369 457.10195923 C-180.38347744 441.83133996 -174.14211178 426.56444695 -167.8949585 411.29989624 C-161.92139167 396.70342786 -155.95832194 382.10269755 -150 367.5 C-143.67427903 351.99687831 -137.34205833 336.49644558 -131 321 C-124.70060114 305.60731864 -118.40930604 290.21134956 -112.125 274.8125 C-111.50192963 273.28576157 -111.50192963 273.28576157 -110.86627197 271.72817993 C-107.91059314 264.48555727 -104.95525774 257.24279449 -102 250 C-98.6252352 241.72907067 -95.25031949 233.45820298 -91.875 225.1875 C-91.45945862 224.16927155 -91.04391724 223.15104309 -90.61578369 222.10195923 C-84.3827943 206.82966609 -78.14055699 191.56117688 -71.89294434 176.29486084 C-65.96280721 161.80379416 -60.04116751 147.30927545 -54.125 132.8125 C-53.70961975 131.79467438 -53.2942395 130.77684875 -52.86627197 129.72817993 C-49.91059314 122.48555727 -46.95525774 115.24279449 -44 108 C-41.0434705 100.75408864 -38.08684125 93.50821802 -35.12988281 86.26248169 C-34.29652054 84.22039959 -33.46318698 82.17830577 -32.62988281 80.13619995 C-28.07644446 68.97787638 -23.51920147 57.82112731 -18.953125 46.66796875 C-18.54405914 45.66865829 -18.13499329 44.66934784 -17.71353149 43.63975525 C-15.77976334 38.91598091 -13.84533248 34.19248 -11.90966797 29.46948242 C-7.89341671 19.66447898 -3.91492474 9.84595194 0 0 Z " fill="#FFFFFF" transform="translate(1927,480)"/>
<path d="M0 0 C4.74655047 3.90203435 9.00759414 8.00857112 13.125 12.5625 C19.22246504 19.19572556 25.50845303 25.62508334 31.875 32 C32.75430176 32.88373291 33.63360352 33.76746582 34.53955078 34.67797852 C38.9610004 39.08979626 43.44309898 43.35732683 48.18164062 47.42675781 C50.96334497 49.83348483 53.63009024 52.35894452 56.3125 54.875 C61.10514915 59.3337948 66.02189828 63.56120791 71.12890625 67.66015625 C73.82627127 69.85841699 76.46283585 72.11025393 79.09082031 74.39013672 C91.39087752 85.05759192 104.4709306 94.64207746 117.60644531 104.24609375 C119.84456402 105.8861024 122.07523161 107.53574607 124.3046875 109.1875 C141.8043546 122.07658492 160.08557328 134.27652932 179 145 C179.76570313 145.43554199 180.53140625 145.87108398 181.3203125 146.31982422 C233.73751686 175.94649874 289.75254468 195.70090964 349 206 C349.87479004 206.15839355 350.74958008 206.31678711 351.65087891 206.47998047 C390.98991395 213.5474652 440.95790633 211.93349851 475.40234375 188.9375 C488.28170766 179.3312376 494.59153701 166.68011384 500 152 C502.90961476 153.45480738 503.05318608 155.36306748 504.1875 158.375 C512.09481718 177.8998125 526.25696553 190.90964603 545.1015625 199.52734375 C554.61310177 203.32142036 564.45346904 204.83801073 574.5625 206.125 C575.22263092 206.21060181 575.88276184 206.29620361 576.56289673 206.38439941 C587.03604546 207.73793718 597.44023885 208.78317224 608 209 C608.71494629 209.02046387 609.42989258 209.04092773 610.16650391 209.06201172 C700.00261769 211.44425361 789.70858896 169.22361468 863 120 C863.64372559 119.56945313 864.28745117 119.13890625 864.95068359 118.6953125 C881.30813837 107.71726393 897.08751545 96.00210307 912.25878906 83.43701172 C914.7815772 81.35496868 917.3309177 79.30593205 919.875 77.25 C924.17101484 73.73332218 928.32063937 70.08165718 932.41796875 66.3359375 C934.52067047 64.43364457 936.64449898 62.56602309 938.78515625 60.70703125 C943.02902576 57.00127071 947.15289689 53.179301 951.25 49.3125 C951.98653809 48.61769531 952.72307617 47.92289063 953.48193359 47.20703125 C961.61322039 39.50910648 969.74531692 31.80345243 977.015625 23.2734375 C979.84018626 20.0374244 982.76373099 16.89631311 985.6875 13.75 C986.52655884 12.84531982 986.52655884 12.84531982 987.38256836 11.92236328 C990.20264622 8.89224815 993.04728474 5.90242571 996 3 C994.589018 7.04286551 992.66333997 10.04653143 990.0625 13.4375 C989.66844971 13.9526416 989.27439941 14.4677832 988.8684082 14.99853516 C987.58518541 16.67060575 986.29285288 18.33536818 985 20 C984.56977539 20.55929199 984.13955078 21.11858398 983.69628906 21.69482422 C974.24531742 33.98108735 964.22756657 45.72991822 953.6875 57.09375 C951.94537167 58.97767947 950.21535838 60.87291381 948.5 62.78125 C942.77598083 69.13351518 936.84881027 75.25584885 930.8125 81.3125 C929.68992798 82.44196045 929.68992798 82.44196045 928.54467773 83.59423828 C924.41308994 87.71442922 920.19173216 91.66633454 915.77075195 95.47436523 C913.53704933 97.3988665 911.36352235 99.38571162 909.1875 101.375 C903.93801145 106.10513275 898.51631394 110.58548951 893 115 C892.49017578 115.40943848 891.98035156 115.81887695 891.45507812 116.24072266 C881.98313428 123.83161033 872.24357121 131.03747638 862.44677734 138.20166016 C860.05531121 139.9593472 857.67624465 141.73248126 855.30078125 143.51171875 C831.72920788 161.13062562 806.94477841 177.09988203 781 191 C780.14245117 191.46229004 779.28490234 191.92458008 778.40136719 192.40087891 C727.22307345 219.89980064 669.85490269 242.59389763 612 251 C610.89817383 251.16306641 609.79634766 251.32613281 608.66113281 251.49414062 C575.84412101 256.26005966 543.06784489 258.5304845 509.91601562 258.39111328 C505.81961516 258.3740229 501.72380013 258.38422272 497.62741947 258.40143585 C468.48599645 258.50492606 439.43087417 256.89373748 410.5625 252.75 C409.82947662 252.64773102 409.09645325 252.54546204 408.34121704 252.44009399 C358.91195442 245.52282806 310.41444995 234.45027956 264.62597656 214.16162109 C262.04794212 213.02120757 259.45924282 211.90889236 256.8671875 210.80078125 C230.58525096 199.43306438 205.68615258 184.50550896 182.05664062 168.39794922 C178.82391577 166.20058662 175.56761929 164.03897982 172.3125 161.875 C171.08716301 161.05740641 169.86190192 160.23969907 168.63671875 159.421875 C166.20596974 157.80094063 163.77072466 156.1870797 161.33203125 154.578125 C143.58414913 142.8492936 126.53645097 130.38665078 110 117 C109.10539062 116.28070312 108.21078125 115.56140625 107.2890625 114.8203125 C101.82017644 110.39311903 96.51398623 105.83588512 91.3125 101.09765625 C89.33615628 99.30492554 87.3354327 97.55204773 85.3125 95.8125 C75.01141927 86.80161427 65.18980793 77.28536377 55.5 67.625 C54.6637207 66.79331299 53.82744141 65.96162598 52.96582031 65.10473633 C48.10340202 60.23012786 43.48606611 55.2205753 39 50 C37.54554483 48.39231627 36.08779105 46.78760285 34.625 45.1875 C30.36214583 40.45817189 26.31447701 35.583875 22.31884766 30.62792969 C20.82916702 28.789131 19.32722551 26.96073329 17.82421875 25.1328125 C0 3.41398774 0 3.41398774 0 0 Z " fill="#FFFFFF" transform="translate(1422,1422)"/>
</svg>
